<svg height="1024" width="1024" xmlns="http://www.w3.org/2000/svg" xmlns:xlink="http://www.w3.org/1999/xlink" version="1.1" x="0px" y="0px" viewBox="0 0 90 90"><path d="M43.657,22.38c0,0,32.061,16.541,16.776,39.991L36.669,41.538l7.223-8.061l-14.971-1.57L16.045,46.773l9.318,8.166 l6.281-6.805l22.507,21.042c0,0-10.049,9.527-22.717-4.292l-3.874,0.209l-3.978,4.109l-2.121-2.159c0,0-0.628-0.903-2.067,0.523 c-1.006,0.996,0,1.806,0,1.806l1.57,1.767c0,0-4.789,2.159-9.932,8.44c0,0-1.962,2.159,0.943,5.339 c2.573,2.818,4.985,1.885,5.889,1.061c0.902-0.825,5.888-5.771,8.165-9.461c0,0,0.432-0.981,1.06-0.393 c0.627,0.589,1.256,1.334,1.256,1.334s0.707,0.981,1.963-0.274c1.256-1.256,0.157-2.081,0-2.238 c-0.157-0.157-2.081-2.237-2.081-2.237s-0.707-0.707,0.354-1.571c0,0,8.663,9.762,18.241,9.762c9.579,0,15.18-5.025,15.18-5.025 l10.73,9.527c0,0,1.885,2.564,5.339-0.891c3.455-3.454-0.209-5.496-0.209-5.496l-9.737-9.369 C68.127,69.647,90.688,35.885,43.657,22.38z"></path><polygon points="43.828,1.661 45.868,7.845 52.381,7.875 47.13,11.727 49.113,17.93 43.828,14.126 38.541,17.93 40.525,11.727 35.274,7.875 41.787,7.845 "></polygon></svg>